<?xml version="1.0" encoding="utf-8"?>
<svg viewBox="0 0 32 32" xmlns="http://www.w3.org/2000/svg">
  <defs/>
  <rect style="opacity:0.2" width="25" height="16" x="143.586" y="47.213" rx="1.25" ry="1.25"/>
  <path style="fill:#b58f1b" d="M 143.586 56.963 C 143.586 57.655 144.144 58.213 144.836 58.213 L 167.336 58.213 C 168.028 58.213 168.586 57.655 168.586 56.963 L 168.586 43.463 C 168.586 42.77 168.028 42.213 167.336 42.213 L 154.586 42.213 L 154.586 41.463 C 154.586 40.77 154.029 40.213 153.336 40.213 L 144.836 40.213 C 144.144 40.213 143.586 40.77 143.586 41.463"/>
  <rect style="opacity:0.2" width="25" height="16" x="143.586" y="45.213" rx="1.25" ry="1.25"/>
  <rect style="fill:#e4e4e4" width="21" height="10" x="145.586" y="44.213" rx="1.25" ry="1.25"/>
  <rect style="fill:#e2b322" width="25" height="16" x="143.586" y="46.213" rx="1.25" ry="1.25"/>
  <path style="opacity:0.1;fill:#ffffff" d="M 144.836 40.213 C 144.144 40.213 143.586 40.77 143.586 41.463 L 143.586 42.463 C 143.586 41.77 144.144 41.213 144.836 41.213 L 153.336 41.213 C 154.029 41.213 154.586 41.77 154.586 42.463 L 154.586 43.213 L 167.336 43.213 C 168.028 43.213 168.586 43.77 168.586 44.463 L 168.586 43.463 C 168.586 42.77 168.028 42.213 167.336 42.213 L 154.586 42.213 L 154.586 41.463 C 154.586 40.77 154.029 40.213 153.336 40.213 L 144.836 40.213 Z"/>
  <path d="M 127.498 -2.948 C 131.379 -2.948 133.805 -7.149 131.864 -10.51 C 130.964 -12.07 129.3 -13.031 127.498 -13.031 C 123.617 -13.031 121.192 -8.829 123.132 -5.468 C 124.033 -3.909 125.697 -2.948 127.498 -2.948 Z M 127.498 -0.733 C 120.795 -0.733 116.498 2.966 116.498 4.767 L 116.498 8.13 L 138.498 8.13 L 138.498 4.767 C 138.498 2.589 134.43 -0.733 127.498 -0.733 Z"/>
  <rect style="opacity:0.2" width="25" height="16" x="3.44" y="12.148" rx="1.25" ry="1.25"/>
  <path style="fill:#b58f1b" d="M 3.44 21.898 C 3.44 22.59 3.998 23.148 4.69 23.148 L 27.19 23.148 C 27.882 23.148 28.44 22.59 28.44 21.898 L 28.44 8.398 C 28.44 7.705 27.882 7.148 27.19 7.148 L 14.44 7.148 L 14.44 6.398 C 14.44 5.705 13.883 5.148 13.19 5.148 L 4.69 5.148 C 3.998 5.148 3.44 5.705 3.44 6.398"/>
  <rect style="opacity:0.2" width="25" height="16" x="3.44" y="10.148" rx="1.25" ry="1.25"/>
  <rect style="fill:#e4e4e4" width="21" height="10" x="5.44" y="9.148" rx="1.25" ry="1.25"/>
  <rect style="fill:#e2b322" width="25" height="16" x="3.44" y="11.148" rx="1.25" ry="1.25"/>
  <path style="opacity:0.1;fill:#ffffff" d="M 4.69 5.148 C 3.998 5.148 3.44 5.705 3.44 6.398 L 3.44 7.398 C 3.44 6.705 3.998 6.148 4.69 6.148 L 13.19 6.148 C 13.883 6.148 14.44 6.705 14.44 7.398 L 14.44 8.148 L 27.19 8.148 C 27.882 8.148 28.44 8.705 28.44 9.398 L 28.44 8.398 C 28.44 7.705 27.882 7.148 27.19 7.148 L 14.44 7.148 L 14.44 6.398 C 14.44 5.705 13.883 5.148 13.19 5.148 L 4.69 5.148 Z"/>
  <path d="M 20.688 19.144 C 22.717 19.144 23.985 16.945 22.971 15.189 C 22.499 14.373 21.63 13.87 20.688 13.87 C 18.656 13.87 17.388 16.068 18.403 17.825 C 18.875 18.64 19.744 19.144 20.688 19.144 Z M 20.688 20.302 C 17.182 20.302 14.933 22.236 14.933 23.179 L 14.933 24.938 L 26.44 24.938 L 26.44 23.179 C 26.44 22.04 24.313 20.302 20.688 20.302 Z" style="fill: rgb(140, 109, 15);"/>
</svg>