<svg xmlns="http://www.w3.org/2000/svg" version="1.1" xmlns:xlink="http://www.w3.org/1999/xlink" xmlns:svgjs="http://svgjs.dev/svgjs" width="1500" height="446" viewBox="0 0 1500 446"><g transform="matrix(1,0,0,1,-0.9090909090911055,0.616021519712092)"><svg viewBox="0 0 396 118" data-background-color="#ffffff" preserveAspectRatio="xMidYMid meet" height="446" width="1500" xmlns="http://www.w3.org/2000/svg" xmlns:xlink="http://www.w3.org/1999/xlink"><g id="tight-bounds" transform="matrix(1,0,0,1,0.24000000000003752,-0.1629832720314539)"><svg viewBox="0 0 395.5199999999999 118.3259665440629" height="118.3259665440629" width="395.5199999999999"><g><svg viewBox="0 0 600.2314102761118 179.56857243888274" height="118.3259665440629" width="395.5199999999999"><g transform="matrix(1,0,0,1,204.7114102761118,36.53271080044695)"><svg viewBox="0 0 395.52 106.50315083798884" height="106.50315083798884" width="395.52"><g id="textblocktransform"><svg viewBox="0 0 395.52 106.50315083798884" height="106.50315083798884" width="395.52" id="textblock"><g><svg viewBox="0 0 395.52 106.50315083798884" height="106.50315083798884" width="395.52"><g transform="matrix(1,0,0,1,0,0)"><svg width="395.52" viewBox="2.25 -35.45 135.24 36.150000000000006" height="106.50315083798884" data-palette-color="#000000"><g class="wordmark-text-0" data-fill-palette-color="primary" id="text-0"><path d="M12.7 0.55L12.7 0.55Q9.03 0.55 6.28-0.68 3.53-1.9 2.25-3.25L2.25-3.25 4.8-8.5Q5.33-7.83 6.46-6.98 7.6-6.13 9.11-5.49 10.63-4.85 12.25-4.85L12.25-4.85Q14.13-4.85 15.51-5.9 16.9-6.95 16.9-9L16.9-9Q16.9-11.03 15.46-12.21 14.03-13.4 11.55-14.9L11.55-14.9Q9.53-16.13 7.58-17.51 5.63-18.9 4.34-20.91 3.05-22.93 3.05-26L3.05-26Q3.05-30.13 5.69-32.79 8.33-35.45 13.35-35.45L13.35-35.45Q15.9-35.45 17.69-34.85 19.48-34.25 20.59-33.48 21.7-32.7 22.25-32.2L22.25-32.2 19.45-27.1Q19.1-27.6 18.28-28.33 17.45-29.05 16.25-29.6 15.05-30.15 13.6-30.15L13.6-30.15Q11.58-30.15 10.56-28.99 9.55-27.83 9.55-26.25L9.55-26.25Q9.55-24.23 11.04-22.95 12.53-21.68 14.65-20.4L14.65-20.4Q17-19 19-17.59 21-16.18 22.23-14.21 23.45-12.25 23.45-9.2L23.45-9.2Q23.45-4.63 20.58-2.04 17.7 0.55 12.7 0.55ZM33.9 0.7L33.9 0.7Q31.6 0.7 30.09-0.33 28.57-1.35 27.84-3.05 27.1-4.75 27.1-6.8L27.1-6.8Q27.1-7.95 27.69-9.33 28.27-10.7 29.77-11.95 31.27-13.2 34-14 36.72-14.8 41-14.8L41-14.8 41-15.95Q41-17.8 40.11-19.03 39.22-20.25 36.55-20.25L36.55-20.25Q34.6-20.25 32.73-19.59 30.87-18.93 30-17.95L30-17.95 28-22.75Q29.5-23.78 32.01-24.64 34.52-25.5 37.6-25.5L37.6-25.5Q41.3-25.5 43.35-24.38 45.4-23.25 46.22-21.19 47.05-19.13 47.05-16.35L47.05-16.35 47.05 0 41.7 0 41.25-3.55Q38.65 0.7 33.9 0.7ZM36.55-4.1L36.55-4.1Q37.67-4.1 38.96-5.01 40.25-5.93 41-7.35L41-7.35 41-10.9Q40.75-10.95 40.46-10.95 40.17-10.95 39.8-10.95L39.8-10.95Q38.42-10.95 36.91-10.64 35.4-10.33 34.35-9.55 33.3-8.78 33.3-7.4L33.3-7.4Q33.3-5.6 34.1-4.85 34.9-4.1 36.55-4.1ZM64.3 0L59.84 0 49.75-24.9 56.75-24.9 61.05-12.45 62.15-8.35 63.15-12.45 67.3-24.9 73.9-24.9 64.3 0ZM87.39 0.65L87.39 0.65Q83.19 0.65 80.62-1.11 78.04-2.88 76.87-5.79 75.69-8.7 75.69-12.15L75.69-12.15Q75.69-15.78 77.03-18.81 78.37-21.85 80.95-23.68 83.54-25.5 87.29-25.5L87.29-25.5Q92.89-25.5 95.12-22.26 97.34-19.03 97.34-13.1L97.34-13.1Q97.34-12.58 97.32-11.78 97.29-10.98 97.24-10.4L97.24-10.4 82.24-10.4Q82.39-7.45 83.91-5.78 85.42-4.1 88.44-4.1L88.44-4.1Q89.99-4.1 91.77-4.79 93.54-5.48 94.39-6.45L94.39-6.45 96.39-1.7Q95.39-1.03 93.23-0.19 91.07 0.65 87.39 0.65ZM82.19-14.3L82.19-14.3 90.99-14.3Q90.99-16.93 90.53-18.31 90.07-19.7 89.27-20.23 88.47-20.75 87.44-20.75L87.44-20.75Q84.89-20.75 83.62-18.86 82.34-16.98 82.19-14.3ZM109.99 0L103.59 0 103.59-34.85 109.99-34.85 109.99 0ZM129.44 0L122.99 0 122.99-29.2 114.94-29.2 114.94-34.85 137.49-34.85 137.49-29.2 129.44-29.2 129.44 0Z" fill="#000000" data-fill-palette-color="primary"></path></g></svg></g></svg></g></svg></g></svg></g><g><svg viewBox="0 0 179.56857243888274 179.56857243888274" height="179.56857243888274" width="179.56857243888274"><g><svg xmlns="http://www.w3.org/2000/svg" xmlns:xlink="http://www.w3.org/1999/xlink" version="1.1" x="0" y="0" viewBox="5 5 90 90" enable-background="new 0 0 100 100" xml:space="preserve" height="179.56857243888274" width="179.56857243888274" class="icon-icon-0" data-fill-palette-color="accent" id="icon-0"><path d="M37.8 54.5C37 54.5 36.3 55.4 36.3 56.6V70.7C36.3 71.8 37 72.7 37.8 72.7H62.1C63 72.7 63.6 71.8 63.6 70.7V56.5C63.6 55.3 62.9 54.4 62.1 54.4H37.8zM40.7 68.2V59.1H45.7V68.2zM36.3 29C35.2 29 34.3 29.9 34.3 31.1V44.2C34.3 45.4 35.2 46.3 36.3 46.3H63.6C64.8 46.3 65.7 45.4 65.7 44.2V31.1C65.7 29.9 64.8 29 63.6 29zM50 5C25.1 5 5 25.1 5 50S25.1 95 50 95 95 74.9 95 50 74.9 5 50 5M74.7 72.7C74.7 73.8 73.8 74.8 72.7 74.8H32.3C31.7 74.8 31.2 74.5 30.8 74.2L25.8 69.1C25.4 68.7 25.2 68.2 25.2 67.7V27.3C25.2 26.1 26.1 25.2 27.3 25.2H72.7C73.8 25.2 74.7 26.1 74.7 27.3z" fill="#0074d9" data-fill-palette-color="accent"></path></svg></g></svg></g></svg></g><defs></defs></svg><rect width="395.5199999999999" height="118.3259665440629" fill="none" stroke="none" visibility="hidden"></rect></g></svg></g></svg>