<?xml version="1.0" encoding="UTF-8"?>
<svg xmlns="http://www.w3.org/2000/svg" xmlns:xlink="http://www.w3.org/1999/xlink" width="512" height="512" viewBox="0 0 512 512" version="1.1">
<defs>
<clipPath id="clip1">
  <path d="M 51.042969 51.042969 L 463.042969 51.042969 L 463.042969 463.042969 L 51.042969 463.042969 Z M 51.042969 51.042969 "/>
</clipPath>
</defs>
<g id="surface1">
<g clip-path="url(#clip1)" clip-rule="nonzero">
<path style=" stroke:none;fill-rule:nonzero;fill:rgb(0%,45.490196%,85.098039%);fill-opacity:1;" d="M 200.910156 277.746094 C 197.230469 277.746094 194.011719 281.886719 194.011719 287.410156 L 194.011719 352.28125 C 194.011719 357.34375 197.230469 361.484375 200.910156 361.484375 L 312.714844 361.484375 C 316.855469 361.484375 319.617188 357.34375 319.617188 352.28125 L 319.617188 286.949219 C 319.617188 281.429688 316.394531 277.289062 312.714844 277.289062 L 200.910156 277.289062 Z M 214.253906 340.78125 L 214.253906 298.910156 L 237.257812 298.910156 L 237.257812 340.78125 Z M 194.011719 160.421875 C 188.949219 160.421875 184.808594 164.5625 184.808594 170.085938 L 184.808594 230.359375 C 184.808594 235.878906 188.949219 240.019531 194.011719 240.019531 L 319.617188 240.019531 C 325.136719 240.019531 329.277344 235.878906 329.277344 230.359375 L 329.277344 170.085938 C 329.277344 164.5625 325.136719 160.421875 319.617188 160.421875 Z M 257.042969 50 C 142.480469 50 50 142.480469 50 257.042969 C 50 371.605469 142.480469 464.085938 257.042969 464.085938 C 371.605469 464.085938 464.085938 371.605469 464.085938 257.042969 C 464.085938 142.480469 371.605469 50 257.042969 50 M 370.6875 361.484375 C 370.6875 366.546875 366.546875 371.148438 361.484375 371.148438 L 175.605469 371.148438 C 172.84375 371.148438 170.546875 369.765625 168.703125 368.386719 L 145.699219 344.921875 C 143.859375 343.082031 142.9375 340.78125 142.9375 338.480469 L 142.9375 152.601562 C 142.9375 147.082031 147.082031 142.9375 152.601562 142.9375 L 361.484375 142.9375 C 366.546875 142.9375 370.6875 147.082031 370.6875 152.601562 Z M 370.6875 361.484375 "/>
</g>
</g>
</svg>
